<mxfile host="app.diagrams.net" modified="2024-05-03T02:17:20.666Z" agent="Mozilla/5.0 (Macintosh; Intel Mac OS X 10_15_7) AppleWebKit/537.36 (KHTML, like Gecko) Chrome/124.0.0.0 Safari/537.36" etag="QoJOEsqpHYUTWkaHbTIQ" version="24.3.1" type="github">
  <diagram name="Page-1" id="Ltq1GmOTAosMqZ6lMnWw">
    <mxGraphModel dx="1448" dy="825" grid="1" gridSize="10" guides="1" tooltips="1" connect="1" arrows="1" fold="1" page="1" pageScale="1" pageWidth="827" pageHeight="1169" math="0" shadow="0">
      <root>
        <mxCell id="0" />
        <mxCell id="1" parent="0" />
        <mxCell id="4Upflc_zmsUeGCih64Ov-19" value="" style="rounded=1;whiteSpace=wrap;html=1;fillColor=#f5f5f5;fontColor=#333333;strokeColor=#666666;opacity=30;" vertex="1" parent="1">
          <mxGeometry x="120" y="120" width="550" height="420" as="geometry" />
        </mxCell>
        <mxCell id="4Upflc_zmsUeGCih64Ov-8" style="edgeStyle=orthogonalEdgeStyle;rounded=0;orthogonalLoop=1;jettySize=auto;html=1;exitX=0.5;exitY=0;exitDx=0;exitDy=0;exitPerimeter=0;flowAnimation=0;endArrow=none;endFill=0;" edge="1" parent="1" source="4Upflc_zmsUeGCih64Ov-2" target="4Upflc_zmsUeGCih64Ov-4">
          <mxGeometry relative="1" as="geometry" />
        </mxCell>
        <mxCell id="4Upflc_zmsUeGCih64Ov-27" style="edgeStyle=orthogonalEdgeStyle;rounded=0;orthogonalLoop=1;jettySize=auto;html=1;endArrow=none;endFill=0;" edge="1" parent="1" source="4Upflc_zmsUeGCih64Ov-2" target="4Upflc_zmsUeGCih64Ov-23">
          <mxGeometry relative="1" as="geometry" />
        </mxCell>
        <mxCell id="4Upflc_zmsUeGCih64Ov-2" value="" style="shape=mxgraph.cisco.switches.workgroup_switch;sketch=0;html=1;pointerEvents=1;dashed=0;fillColor=#036897;strokeColor=#ffffff;strokeWidth=2;verticalLabelPosition=bottom;verticalAlign=top;align=center;outlineConnect=0;" vertex="1" parent="1">
          <mxGeometry x="260" y="250" width="101" height="50" as="geometry" />
        </mxCell>
        <mxCell id="4Upflc_zmsUeGCih64Ov-11" style="edgeStyle=orthogonalEdgeStyle;rounded=0;orthogonalLoop=1;jettySize=auto;html=1;exitX=0.5;exitY=0;exitDx=0;exitDy=0;exitPerimeter=0;endArrow=none;endFill=0;" edge="1" parent="1" source="4Upflc_zmsUeGCih64Ov-3" target="4Upflc_zmsUeGCih64Ov-5">
          <mxGeometry relative="1" as="geometry" />
        </mxCell>
        <mxCell id="4Upflc_zmsUeGCih64Ov-14" style="edgeStyle=orthogonalEdgeStyle;rounded=0;orthogonalLoop=1;jettySize=auto;html=1;exitX=0.5;exitY=0.98;exitDx=0;exitDy=0;exitPerimeter=0;endArrow=none;endFill=0;entryX=0.5;entryY=0;entryDx=0;entryDy=0;entryPerimeter=0;" edge="1" parent="1" source="4Upflc_zmsUeGCih64Ov-3" target="4Upflc_zmsUeGCih64Ov-12">
          <mxGeometry relative="1" as="geometry">
            <mxPoint x="360" y="600" as="targetPoint" />
          </mxGeometry>
        </mxCell>
        <mxCell id="4Upflc_zmsUeGCih64Ov-31" style="edgeStyle=orthogonalEdgeStyle;rounded=0;orthogonalLoop=1;jettySize=auto;html=1;exitX=0.98;exitY=0.5;exitDx=0;exitDy=0;exitPerimeter=0;endArrow=none;endFill=0;" edge="1" parent="1" source="4Upflc_zmsUeGCih64Ov-3" target="4Upflc_zmsUeGCih64Ov-30">
          <mxGeometry relative="1" as="geometry" />
        </mxCell>
        <mxCell id="4Upflc_zmsUeGCih64Ov-3" value="" style="shape=mxgraph.cisco.switches.workgroup_switch;sketch=0;html=1;pointerEvents=1;dashed=0;fillColor=#036897;strokeColor=#ffffff;strokeWidth=2;verticalLabelPosition=bottom;verticalAlign=top;align=center;outlineConnect=0;" vertex="1" parent="1">
          <mxGeometry x="420" y="250" width="101" height="50" as="geometry" />
        </mxCell>
        <mxCell id="4Upflc_zmsUeGCih64Ov-4" value="" style="shape=mxgraph.cisco.switches.workgroup_switch;sketch=0;html=1;pointerEvents=1;dashed=0;fillColor=#036897;strokeColor=#ffffff;strokeWidth=2;verticalLabelPosition=bottom;verticalAlign=top;align=center;outlineConnect=0;" vertex="1" parent="1">
          <mxGeometry x="260" y="130" width="101" height="50" as="geometry" />
        </mxCell>
        <mxCell id="4Upflc_zmsUeGCih64Ov-5" value="" style="shape=mxgraph.cisco.switches.workgroup_switch;sketch=0;html=1;pointerEvents=1;dashed=0;fillColor=#036897;strokeColor=#ffffff;strokeWidth=2;verticalLabelPosition=bottom;verticalAlign=top;align=center;outlineConnect=0;" vertex="1" parent="1">
          <mxGeometry x="420" y="130" width="101" height="50" as="geometry" />
        </mxCell>
        <mxCell id="4Upflc_zmsUeGCih64Ov-9" style="edgeStyle=orthogonalEdgeStyle;rounded=0;orthogonalLoop=1;jettySize=auto;html=1;exitX=0;exitY=0.98;exitDx=0;exitDy=0;exitPerimeter=0;entryX=0.98;entryY=0.5;entryDx=0;entryDy=0;entryPerimeter=0;endArrow=none;endFill=0;curved=1;" edge="1" parent="1" source="4Upflc_zmsUeGCih64Ov-5" target="4Upflc_zmsUeGCih64Ov-2">
          <mxGeometry relative="1" as="geometry" />
        </mxCell>
        <mxCell id="4Upflc_zmsUeGCih64Ov-10" style="edgeStyle=orthogonalEdgeStyle;rounded=0;orthogonalLoop=1;jettySize=auto;html=1;exitX=0.98;exitY=0.5;exitDx=0;exitDy=0;exitPerimeter=0;entryX=0;entryY=0.5;entryDx=0;entryDy=0;entryPerimeter=0;endArrow=none;endFill=0;curved=1;" edge="1" parent="1" source="4Upflc_zmsUeGCih64Ov-4" target="4Upflc_zmsUeGCih64Ov-3">
          <mxGeometry relative="1" as="geometry" />
        </mxCell>
        <mxCell id="4Upflc_zmsUeGCih64Ov-12" value="" style="sketch=0;points=[[0.5,0,0],[1,0.5,0],[0.5,1,0],[0,0.5,0],[0.145,0.145,0],[0.8555,0.145,0],[0.855,0.8555,0],[0.145,0.855,0]];verticalLabelPosition=bottom;html=1;verticalAlign=top;aspect=fixed;align=center;pointerEvents=1;shape=mxgraph.cisco19.rect;prIcon=router;fillColor=#FAFAFA;strokeColor=#005073;" vertex="1" parent="1">
          <mxGeometry x="360" y="600" width="80" height="80" as="geometry" />
        </mxCell>
        <mxCell id="4Upflc_zmsUeGCih64Ov-13" style="edgeStyle=orthogonalEdgeStyle;rounded=0;orthogonalLoop=1;jettySize=auto;html=1;exitX=0.5;exitY=0.98;exitDx=0;exitDy=0;exitPerimeter=0;endArrow=none;endFill=0;" edge="1" parent="1" source="4Upflc_zmsUeGCih64Ov-2" target="4Upflc_zmsUeGCih64Ov-12">
          <mxGeometry relative="1" as="geometry">
            <mxPoint x="380" y="550" as="targetPoint" />
          </mxGeometry>
        </mxCell>
        <mxCell id="4Upflc_zmsUeGCih64Ov-15" value="Carrier DIA" style="ellipse;shape=cloud;whiteSpace=wrap;html=1;" vertex="1" parent="1">
          <mxGeometry x="560" y="630" width="120" height="80" as="geometry" />
        </mxCell>
        <mxCell id="4Upflc_zmsUeGCih64Ov-16" value="Carrier SIP" style="ellipse;shape=cloud;whiteSpace=wrap;html=1;" vertex="1" parent="1">
          <mxGeometry x="560" y="710" width="120" height="80" as="geometry" />
        </mxCell>
        <mxCell id="4Upflc_zmsUeGCih64Ov-17" value="Private IX" style="ellipse;shape=cloud;whiteSpace=wrap;html=1;" vertex="1" parent="1">
          <mxGeometry x="560" y="800" width="120" height="80" as="geometry" />
        </mxCell>
        <mxCell id="4Upflc_zmsUeGCih64Ov-20" style="edgeStyle=orthogonalEdgeStyle;rounded=0;orthogonalLoop=1;jettySize=auto;html=1;exitX=1;exitY=0.5;exitDx=0;exitDy=0;exitPerimeter=0;entryX=0.16;entryY=0.55;entryDx=0;entryDy=0;entryPerimeter=0;endArrow=none;endFill=0;" edge="1" parent="1" source="4Upflc_zmsUeGCih64Ov-12" target="4Upflc_zmsUeGCih64Ov-15">
          <mxGeometry relative="1" as="geometry" />
        </mxCell>
        <mxCell id="4Upflc_zmsUeGCih64Ov-21" style="edgeStyle=orthogonalEdgeStyle;rounded=0;orthogonalLoop=1;jettySize=auto;html=1;exitX=0.16;exitY=0.55;exitDx=0;exitDy=0;exitPerimeter=0;entryX=0.855;entryY=0.8555;entryDx=0;entryDy=0;entryPerimeter=0;endArrow=none;endFill=0;" edge="1" parent="1" source="4Upflc_zmsUeGCih64Ov-16" target="4Upflc_zmsUeGCih64Ov-12">
          <mxGeometry relative="1" as="geometry" />
        </mxCell>
        <mxCell id="4Upflc_zmsUeGCih64Ov-22" style="edgeStyle=orthogonalEdgeStyle;rounded=0;orthogonalLoop=1;jettySize=auto;html=1;exitX=0.16;exitY=0.55;exitDx=0;exitDy=0;exitPerimeter=0;entryX=0.5;entryY=1;entryDx=0;entryDy=0;entryPerimeter=0;endArrow=none;endFill=0;" edge="1" parent="1" source="4Upflc_zmsUeGCih64Ov-17" target="4Upflc_zmsUeGCih64Ov-12">
          <mxGeometry relative="1" as="geometry" />
        </mxCell>
        <mxCell id="4Upflc_zmsUeGCih64Ov-23" value="" style="shape=mxgraph.cisco.security.firewall;sketch=0;html=1;pointerEvents=1;dashed=0;fillColor=#036897;strokeColor=#ffffff;strokeWidth=2;verticalLabelPosition=bottom;verticalAlign=top;align=center;outlineConnect=0;" vertex="1" parent="1">
          <mxGeometry x="210" y="343" width="29" height="67" as="geometry" />
        </mxCell>
        <mxCell id="4Upflc_zmsUeGCih64Ov-28" value="&lt;div&gt;&lt;span style=&quot;background-color: initial;&quot;&gt;L3 Anycast Gateway&lt;/span&gt;&lt;br&gt;&lt;/div&gt;&lt;div&gt;FIrewall Redirection PBR&lt;/div&gt;" style="text;html=1;align=center;verticalAlign=middle;resizable=0;points=[];autosize=1;strokeColor=none;fillColor=none;" vertex="1" parent="1">
          <mxGeometry x="140" y="190" width="160" height="40" as="geometry" />
        </mxCell>
        <mxCell id="4Upflc_zmsUeGCih64Ov-29" value="SDWAN Routers" style="text;html=1;align=center;verticalAlign=middle;resizable=0;points=[];autosize=1;strokeColor=none;fillColor=none;" vertex="1" parent="1">
          <mxGeometry x="440" y="600" width="110" height="30" as="geometry" />
        </mxCell>
        <mxCell id="4Upflc_zmsUeGCih64Ov-30" value="" style="shape=mxgraph.cisco.security.firewall;sketch=0;html=1;pointerEvents=1;dashed=0;fillColor=#036897;strokeColor=#ffffff;strokeWidth=2;verticalLabelPosition=bottom;verticalAlign=top;align=center;outlineConnect=0;" vertex="1" parent="1">
          <mxGeometry x="540" y="360" width="29" height="67" as="geometry" />
        </mxCell>
        <mxCell id="4Upflc_zmsUeGCih64Ov-33" value="" style="sketch=0;points=[[0.015,0.015,0],[0.985,0.015,0],[0.985,0.985,0],[0.015,0.985,0],[0.25,0,0],[0.5,0,0],[0.75,0,0],[1,0.25,0],[1,0.5,0],[1,0.75,0],[0.75,1,0],[0.5,1,0],[0.25,1,0],[0,0.75,0],[0,0.5,0],[0,0.25,0]];verticalLabelPosition=bottom;html=1;verticalAlign=top;aspect=fixed;align=center;pointerEvents=1;shape=mxgraph.cisco19.rect;prIcon=blade_server;fillColor=#FAFAFA;strokeColor=#005073;" vertex="1" parent="1">
          <mxGeometry x="340" y="330" width="80" height="80" as="geometry" />
        </mxCell>
        <mxCell id="4Upflc_zmsUeGCih64Ov-34" value="UCS Blade Chassis&lt;div&gt;x9508&lt;/div&gt;" style="text;html=1;align=center;verticalAlign=middle;resizable=0;points=[];autosize=1;strokeColor=none;fillColor=none;" vertex="1" parent="1">
          <mxGeometry x="320" y="410" width="130" height="40" as="geometry" />
        </mxCell>
        <mxCell id="4Upflc_zmsUeGCih64Ov-35" style="edgeStyle=orthogonalEdgeStyle;rounded=0;orthogonalLoop=1;jettySize=auto;html=1;exitX=0;exitY=0.5;exitDx=0;exitDy=0;exitPerimeter=0;curved=1;entryX=0.87;entryY=0.74;entryDx=0;entryDy=0;entryPerimeter=0;endArrow=none;endFill=0;" edge="1" parent="1" source="4Upflc_zmsUeGCih64Ov-33" target="4Upflc_zmsUeGCih64Ov-2">
          <mxGeometry relative="1" as="geometry" />
        </mxCell>
        <mxCell id="4Upflc_zmsUeGCih64Ov-36" style="edgeStyle=orthogonalEdgeStyle;rounded=0;orthogonalLoop=1;jettySize=auto;html=1;exitX=1;exitY=0.5;exitDx=0;exitDy=0;exitPerimeter=0;entryX=0;entryY=0.5;entryDx=0;entryDy=0;entryPerimeter=0;curved=1;endArrow=none;endFill=0;" edge="1" parent="1" source="4Upflc_zmsUeGCih64Ov-33" target="4Upflc_zmsUeGCih64Ov-3">
          <mxGeometry relative="1" as="geometry" />
        </mxCell>
      </root>
    </mxGraphModel>
  </diagram>
</mxfile>
